Coordinates
version=1
nRows=13
nColumns=40
inDegrees=yes

Units are S.I. units (second, meters, Newtons, ...)
Angles are in degrees.

endheader
time	pelvis_tilt	pelvis_list	pelvis_rotation	pelvis_tx	pelvis_ty	pelvis_tz	hip_flexion_r	hip_adduction_r	hip_rotation_r	knee_angle_r	knee_angle_r_beta	ankle_angle_r	subtalar_angle_r	mtp_angle_r	hip_flexion_l	hip_adduction_l	hip_rotation_l	knee_angle_l	knee_angle_l_beta	ankle_angle_l	subtalar_angle_l	mtp_angle_l	lumbar_extension	lumbar_bending	lumbar_rotation	arm_flex_r	arm_add_r	arm_rot_r	elbow_flex_r	pro_sup_r	wrist_flex_r	wrist_dev_r	arm_flex_l	arm_add_l	arm_rot_l	elbow_flex_l	pro_sup_l	wrist_flex_l	wrist_dev_l
     44.88000000	     -3.52814359	     -2.62777303	     -0.61529182	      1.08600039	      0.93187822	      0.43218978	     32.25972701	     -4.87175005	     -4.50631638	     73.96029231	     73.96029231	     -1.79552940	    -17.86120427	      5.40358772	     16.29909071	     -3.70810900	     -9.35572566	     21.36153678	     21.36153678	     10.61385539	    -15.85691428	     -1.43193596	     -9.05984920	      3.98365313	      1.44700906	     14.70047215	    -13.09987228	     -1.18381834	     77.87768493	     45.28163925	      0.00000000	      0.00000000	      7.83668233	    -12.50538783	      8.38092347	     35.31112301	     45.39654763	      0.00000000	      0.00000000
     44.89135714	     -3.47294211	     -2.76144111	     -0.83248659	      1.08468553	      0.93277836	      0.43187708	     33.55902773	     -4.73424826	     -4.50947428	     72.69060833	     72.69060833	     -1.32794458	    -18.02761792	      5.29295697	     15.27553501	     -3.80750311	     -9.60442595	     20.72741117	     20.72741117	     10.94738612	    -15.55959833	     -1.62297062	     -9.26222930	      4.34134946	      1.93141010	     12.44435551	    -13.70001450	     -1.24572592	     74.86849503	     45.37300214	      0.00000000	      0.00000000	      9.95347065	    -12.75612055	      8.20795513	     36.64548022	     45.45460998	      0.00000000	      0.00000000
     44.90271429	     -3.41272466	     -2.85440898	     -1.05591055	      1.08339246	      0.93361690	      0.43163958	     34.70271547	     -4.61741914	     -4.49898512	     71.18040736	     71.18040736	     -0.90496385	    -18.14062744	      5.21818404	     14.24796528	     -3.87224205	     -9.91391476	     20.07165389	     20.07165389	     11.02379804	    -15.33187061	     -2.42846893	     -9.36020371	      4.57145502	      1.68117363	     11.96423441	    -12.94843289	     -2.58124842	     68.10949537	     45.63459141	      0.00000000	      0.00000000	     11.51667683	    -13.58097156	      8.47187992	     38.51623660	     45.47030802	      0.00000000	      0.00000000
     44.91407143	     -3.30209506	     -2.93093012	     -1.26780099	      1.08224010	      0.93440544	      0.43139152	     35.64176531	     -4.50629733	     -4.49558122	     69.44206819	     69.44206819	     -0.41895267	    -18.23634949	      5.62627092	     13.15514134	     -3.89109778	    -10.16270426	     19.38398388	     19.38398388	     11.16956893	    -15.15948411	     -2.92267690	     -9.56031319	      4.79033283	      1.66603483	     11.10383205	    -12.84494162	     -3.04915970	     62.68301060	     45.81516708	      0.00000000	      0.00000000	     13.06447480	    -14.28680278	      8.53162067	     40.67806440	     45.51910855	      0.00000000	      0.00000000
     44.92542857	     -3.16977233	     -2.97827899	     -1.53425221	      1.08134606	      0.93517438	      0.43118011	     36.34568028	     -4.39385166	     -4.47326937	     67.35078856	     67.35078856	      0.06382370	    -18.31392490	      5.96960195	     11.98365915	     -3.86473319	    -10.45463283	     18.65058740	     18.65058740	     11.46947542	    -14.90159712	     -3.05467234	     -9.86808182	      5.01971933	      2.27452593	      9.42935712	    -13.37025025	     -3.19109445	     59.08919523	     45.92859820	      0.00000000	      0.00000000	     15.05390431	    -14.52820240	      8.30912457	     42.41701703	     45.58675024	      0.00000000	      0.00000000
     44.93678571	     -3.10154198	     -3.03408940	     -1.73445245	      1.08059236	      0.93576783	      0.43102874	     36.93862681	     -4.30920614	     -4.54524756	     64.96044802	     64.96044802	      0.56735984	    -18.30098496	      6.67618401	     10.89613619	     -3.84098578	    -10.67952254	     17.89443414	     17.89443414	     11.55947308	    -14.71973619	     -3.62787802	     -9.93207552	      5.21440683	      1.73667868	      9.79615590	    -12.57732612	     -4.36906088	     51.44661698	     46.21350255	      0.00000000	      0.00000000	     16.07051715	    -15.49835194	      8.28240776	     44.74356535	     45.64621341	      0.00000000	      0.00000000
     44.94814286	     -2.99863052	     -3.03888056	     -1.98027772	      1.08004513	      0.93626542	      0.43090880	     37.29881659	     -4.24989147	     -4.58692164	     62.20020022	     62.20020022	      0.88790950	    -18.25137325	      6.79425320	      9.73302738	     -3.74261443	    -10.93653596	     17.10766258	     17.10766258	     11.75570661	    -14.52018284	     -3.90945497	    -10.10866167	      5.36654303	      1.74542678	      9.31285105	    -12.51090452	     -5.05117220	     45.99229181	     46.39256859	      0.00000000	      0.00000000	     17.26966844	    -16.10052615	      7.73464856	     47.23061292	     45.76684281	      0.00000000	      0.00000000
     44.95950000	     -2.84426437	     -2.98123886	     -2.30344224	      1.07977325	      0.93668760	      0.43095727	     37.40450231	     -4.18405577	     -4.57338214	     59.09459064	     59.09459064	      1.27339301	    -18.14168448	      6.82921364	      8.46430647	     -3.57828637	    -11.31881683	     16.27056719	     16.27056719	     12.05569713	    -14.27033140	     -3.91576069	    -10.38524027	      5.42316036	      2.52740610	      7.55780386	    -13.10640484	     -5.18716250	     43.08768467	     46.48290191	      0.00000000	      0.00000000	     19.09494194	    -16.16025828	      7.28292323	     49.12944481	     45.85429526	      0.00000000	      0.00000000
     44.97085714	     -2.77312357	     -3.01944897	     -2.51122115	      1.07966061	      0.93693697	      0.43098458	     37.37079281	     -4.05583963	     -4.69514944	     55.60071035	     55.60071035	      1.46597660	    -17.76832352	      6.82102355	      7.33314799	     -3.50787929	    -11.50566356	     15.53219999	     15.53219999	     12.34604411	    -13.99867160	     -3.96744090	    -10.50636542	      5.66974139	      2.86674658	      5.97486051	    -13.46506389	     -5.34388082	     40.40092364	     46.57390332	      0.00000000	      0.00000000	     20.59194302	    -16.33915750	      6.93180010	     50.81239452	     45.92244350	      0.00000000	      0.00000000
     44.98221429	     -2.70952814	     -2.85181679	     -2.77791901	      1.07966626	      0.93693771	      0.43116110	     37.09458760	     -4.10086377	     -4.78209380	     51.66851348	     51.66851348	      1.01553536	    -17.38102973	      4.14344638	      6.15560037	     -3.19832487	    -11.78290090	     14.66187336	     14.66187336	     12.42042342	    -13.84257060	     -4.41465869	    -10.59546520	      5.58634879	      2.28010175	      7.11482058	    -12.83760618	     -6.79512039	     31.72826452	     46.95364282	      0.00000000	      0.00000000	     20.80694309	    -17.51883546	      6.15434971	     54.79584869	     46.06778575	      0.00000000	      0.00000000
     44.99357143	     -2.65378955	     -2.86659720	     -2.97769372	      1.07992781	      0.93680487	      0.43149026	     36.66541761	     -3.90584021	     -4.94358727	     47.59612118	     47.59612118	      1.32558828	    -16.46484406	      4.10408085	      5.02395240	     -3.11508247	    -11.99586691	     13.93062016	     13.93062016	     12.72618873	    -13.52980193	     -4.40889088	    -10.69674382	      5.78751062	      2.84451977	      5.18176250	    -13.31378341	     -6.94557736	     29.98211572	     47.01241807	      0.00000000	      0.00000000	     22.28891855	    -17.48355455	      5.59034226	     56.58970130	     46.15474415	      0.00000000	      0.00000000
     45.00492857	     -2.59377333	     -2.78713638	     -3.18019190	      1.08028508	      0.93644123	      0.43193734	     36.05709175	     -3.80334742	     -5.18019380	     43.33107211	     43.33107211	      1.59320808	    -15.02067622	      3.77004646	      3.89641389	     -2.93016398	    -12.24933853	     13.22089131	     13.22089131	     13.03783593	    -13.20342377	     -4.47914079	    -10.83092330	      5.82036987	      3.45252681	      3.32958479	    -13.69737807	     -7.09316380	     27.82822006	     47.09168815	      0.00000000	      0.00000000	     23.68699017	    -17.45250652	      5.03773417	     58.82031469	     46.24548599	      0.00000000	      0.00000000
     45.01628571	     -2.53828637	     -2.70168227	     -3.33812097	      1.08083296	      0.93580642	      0.43250718	     35.26079769	     -3.72017074	     -5.58841947	     38.93919679	     38.93919679	      1.82831700	    -13.12883721	      3.26143025	      2.79394472	     -2.74996039	    -12.49537326	     12.56405479	     12.56405479	     13.36020437	    -12.86510629	     -4.64070714	    -10.88701797	      5.80121844	      3.94061633	      1.64156761	    -13.95086164	     -7.25134441	     25.50756494	     47.18418354	      0.00000000	      0.00000000	     24.89117969	    -17.53211852	      4.44925356	     61.40537570	     46.34323328	      0.00000000	      0.00000000
